<svg width="39" height="19" viewBox="0 0 39 19" fill="none" xmlns="http://www.w3.org/2000/svg">
<path d="M37.6629 12.8129C36.8924 15.4776 33.8105 17.8542 30.8687 18.2383C27.8101 18.6224 25.1952 17.6862 23.1873 15.3576C21.5296 13.4131 20.1054 11.2525 18.5644 9.18793C17.3036 7.53148 16.1363 5.75501 14.712 4.24261C12.4006 1.76995 9.38875 1.38584 6.61037 2.89825C3.97207 4.33863 2.50116 7.31543 2.99147 10.3162C3.50512 13.4611 5.86324 15.8137 9.03854 16.2938C11.2099 16.6299 13.031 15.7897 14.572 14.3013C15.4592 13.4611 16.2296 12.5008 17.0468 11.5886C18.3776 12.7409 18.401 13.053 17.2569 14.3973C14.5019 17.6382 11.2332 19.1746 7.05398 17.8542C3.66855 16.774 1.24038 13.5571 0.983559 9.98014C0.703386 6.0911 2.6179 2.65818 6.00333 0.953727C9.22532 -0.678709 13.0543 -0.246593 15.716 2.49014C17.6539 4.48267 19.1715 6.90732 20.8759 9.11591C22.2534 10.8924 23.4908 12.8129 25.0784 14.3733C28.067 17.3261 32.3163 16.99 34.9545 13.7011C35.7484 12.7409 36.5188 12.5488 37.6629 12.8129Z" fill="white"/>
<path d="M28.1363 8.15544C30.8915 8.15544 33.5999 8.15544 36.285 8.15544C36.5886 5.99486 34.3938 3.49819 32.5025 2.68198C27.8328 0.71345 25.0076 3.47419 22.4626 6.9071C21.1084 5.34669 21.1084 5.29868 22.3925 3.83428C25.5913 0.185309 29.2571 -0.846967 33.1563 0.809476C36.3551 2.15383 38.5732 5.61076 38.5732 9.09169C38.5732 9.97993 38.3164 10.268 37.4291 10.268C34.7907 10.22 32.1289 10.244 29.4905 10.244C27.8094 10.22 27.7627 10.172 28.1363 8.15544Z" fill="white"/>
</svg>
