<svg width="23" height="37" viewBox="0 0 23 37" fill="none" xmlns="http://www.w3.org/2000/svg">
<path d="M12.3679 0.0072294C13.2586 1.56878 14.1425 3.13033 15.0333 4.68465C17.5329 9.05121 20.0395 13.4105 22.546 17.7771C22.5944 17.8566 22.6358 17.9434 22.7187 18.0952C22.5668 18.0301 22.4632 17.994 22.3665 17.9506C19.1142 16.4613 15.8619 14.9649 12.6096 13.4828C12.3679 13.3744 12.2988 13.2443 12.2988 12.9768C12.3057 8.71142 12.3057 4.44608 12.3057 0.180735C12.3057 0.1229 12.2988 0.0578352 12.2988 0C12.3264 0.0072294 12.3472 0.0072294 12.3679 0.0072294Z" fill="white"/>
<path d="M11.6091 0.00732422C11.6091 4.3305 11.6091 8.65368 11.616 12.9841C11.616 13.2444 11.5539 13.3817 11.3122 13.4902C8.08749 14.9577 4.86969 16.4397 1.6519 17.9145C1.58285 17.9507 1.50689 17.9724 1.35498 18.0374C1.44475 17.8639 1.49308 17.7483 1.55523 17.6398C4.83517 11.8708 8.11511 6.10171 11.395 0.325418C11.4503 0.224206 11.4917 0.108536 11.5401 0.00732422C11.5677 0.00732422 11.5884 0.00732422 11.6091 0.00732422Z" fill="white"/>
<path d="M12.3203 25.5491C12.3203 21.7175 12.3203 17.9655 12.3203 14.1411C15.8696 15.7677 19.3843 17.3799 22.968 19.021C19.3912 21.2115 15.8765 23.3658 12.3203 25.5491Z" fill="white"/>
<path d="M11.5815 25.5271C8.04603 23.3583 4.54512 21.2112 0.968262 19.0207C4.53822 17.3796 8.05293 15.7747 11.5815 14.1553C11.5815 17.9652 11.5815 21.7317 11.5815 25.5271Z" fill="white"/>
<path d="M22.7748 21.5361C19.3154 26.6617 15.849 31.7946 12.3412 36.9853C12.3205 36.8262 12.3066 36.7395 12.3066 36.6527C12.3066 33.8116 12.3066 30.9704 12.3135 28.1293C12.3135 28.0064 12.3964 27.8256 12.4931 27.7606C15.8697 25.6785 19.2532 23.6037 22.6367 21.5361C22.6643 21.5216 22.6989 21.5071 22.7265 21.4927C22.7472 21.5071 22.761 21.5216 22.7748 21.5361Z" fill="white"/>
<path d="M1.20954 21.4858C2.73557 22.4257 4.26161 23.3583 5.78764 24.2908C7.64513 25.4259 9.4957 26.5609 11.3532 27.6959C11.5051 27.7899 11.6225 27.8622 11.6225 28.1007C11.6156 30.978 11.6156 33.8553 11.6156 36.7326C11.6156 36.7905 11.6087 36.8411 11.5949 37.0001C8.08015 31.795 4.61377 26.6621 1.1543 21.5364C1.16811 21.5148 1.18882 21.5003 1.20954 21.4858Z" fill="white"/>
</svg>
