<svg width="32" height="36" viewBox="0 0 32 36" fill="none" xmlns="http://www.w3.org/2000/svg">
<path d="M0.872415 17.9903C0.872415 15.2024 0.882037 12.4245 0.862793 9.63661C0.862793 9.12254 1.03599 8.82596 1.45935 8.57881C6.14524 5.78109 10.8215 2.97347 15.4882 0.155975C15.9019 -0.0911737 16.2194 -0.0219719 16.5947 0.205405C21.0111 2.87461 25.4469 5.52405 29.8633 8.19326C31.2393 9.02368 31.1334 8.59859 31.1334 10.4868C31.1334 15.756 31.1238 21.0252 31.1431 26.3043C31.1431 26.8678 30.9699 27.204 30.4888 27.4907C25.8702 30.239 21.2709 33.007 16.6717 35.785C16.1906 36.0717 15.8249 36.0717 15.3534 35.785C10.7542 33.007 6.14524 30.2488 1.53633 27.5005C1.05523 27.2139 0.872415 26.8777 0.882037 26.3142C0.882037 23.5264 0.872415 20.7583 0.872415 17.9903ZM26.7651 18.6526C26.7747 18.8404 26.8132 18.9788 26.7843 19.0975C26.5341 20.1157 26.3513 21.1636 25.9857 22.1424C25.1293 24.4458 23.4936 26.1066 21.4922 27.3918C18.75 29.1515 15.9789 30.8717 13.2174 32.6116C13.0634 32.7104 12.9191 32.8192 12.7363 32.9477C12.8517 33.0565 12.8998 33.1158 12.9672 33.1553C13.6888 33.62 14.4105 34.0747 15.1321 34.5295C15.7768 34.9348 16.4119 34.8458 17.0277 34.4405C17.6627 34.0253 18.3074 33.6298 18.9424 33.2146C19.0483 33.1454 19.1349 33.0663 19.2888 32.9576C18.471 32.4238 17.7012 31.9097 16.8641 31.3561C18.0765 30.6443 19.1926 29.9622 20.328 29.3294C20.4723 29.2504 20.7706 29.3294 20.9342 29.4382C21.4826 29.804 22.0118 30.2093 22.541 30.6146C22.772 30.7926 22.9548 30.8321 23.2242 30.6739C25.3314 29.3888 27.4482 28.1135 29.5747 26.858C29.9692 26.6207 30.1328 26.3142 30.1231 25.8595C30.1039 24.7522 30.1231 23.6549 30.1135 22.5477C30.1135 18.4648 30.1135 14.372 30.1135 10.2891C30.1135 9.89365 30.075 9.53775 29.6998 9.31038C27.5445 8.01531 25.3891 6.70048 23.2242 5.42519C23.0414 5.31645 22.6757 5.33622 22.4929 5.44496C19.7026 7.20467 16.9411 8.98414 14.1603 10.7537C12.717 11.6731 11.3026 12.6518 10.1768 13.9864C8.22358 16.2899 8.12736 19.3051 9.92667 21.737C10.6772 22.7454 11.6201 23.5363 12.6304 24.2382C13.4387 24.7918 14.2565 25.3355 15.1321 25.9287C14.0256 26.591 12.9672 27.204 11.928 27.8466C11.5913 28.0542 11.3026 28.0739 11.0139 27.807C9.97478 26.9074 8.83939 26.0967 7.91568 25.0785C5.31775 22.2313 4.60573 18.8207 5.59679 15.0937C6.36655 12.1872 8.22358 10.0815 10.6579 8.49973C13.2174 6.83889 15.8153 5.23736 18.394 3.61606C18.6538 3.45789 18.9039 3.28983 19.2118 3.08222C19.0386 2.94382 18.9232 2.83507 18.7885 2.75598C18.0283 2.30123 17.2586 1.86625 16.5081 1.39172C16.1617 1.17423 15.8634 1.17423 15.517 1.38183C14.6799 1.8959 13.8332 2.40009 12.9864 2.90427C12.9191 2.94382 12.8325 2.96359 12.6882 3.01302C13.583 3.60618 14.3335 4.10047 15.1418 4.63432C13.9486 5.35599 12.8421 6.04801 11.7067 6.6906C11.5624 6.76968 11.2641 6.70048 11.1005 6.59174C10.6002 6.2655 10.1191 5.89972 9.65725 5.52405C9.33973 5.25713 9.06069 5.22747 8.69506 5.44496C6.57823 6.72025 4.4614 7.98566 2.34457 9.25106C2.01743 9.44878 1.8731 9.69593 1.8731 10.0914C1.88272 15.3804 1.88272 20.6693 1.8731 25.9583C1.8731 26.3735 2.02705 26.6306 2.36382 26.8382C4.47102 28.0937 6.56861 29.3591 8.66619 30.6245C8.98372 30.8222 9.25313 30.7926 9.55141 30.585C10.1865 30.1401 10.8408 29.715 11.4854 29.2899C14.3239 27.4412 17.172 25.5926 20.0105 23.734C20.3953 23.477 20.7321 23.1507 21.0977 22.8443C21.0689 22.7849 21.04 22.7355 21.0208 22.6762C18.5864 22.6762 16.1521 22.6762 13.6407 22.6762C14.3143 21.4701 14.9589 20.3728 15.5555 19.2458C15.7864 18.8108 16.0655 18.6526 16.5466 18.6625C19.7507 18.6823 22.9644 18.6724 26.1685 18.6724C26.361 18.6526 26.5534 18.6526 26.7651 18.6526Z" fill="white"/>
<path d="M26.6513 16.5076C25.5832 16.5076 24.544 16.5274 23.5144 16.4878C23.3701 16.4878 23.1488 16.2703 23.091 16.1023C22.5329 14.5798 21.5515 13.4133 20.2909 12.484C19.194 11.6635 18.0489 10.9022 16.875 10.0718C17.1733 9.88399 17.4427 9.70604 17.7218 9.53798C18.4916 9.07334 19.2613 8.58893 20.0504 8.16383C20.2717 8.0452 20.6566 7.99577 20.8394 8.1144C22.7831 9.40946 24.4863 10.9616 25.6217 13.0772C26.2375 14.1943 26.632 15.4893 26.6513 16.5076Z" fill="white"/>
</svg>
